<?xml version="1.0" encoding="utf-8"?>
<!-- Generator: Adobe Illustrator 24.1.1, SVG Export Plug-In . SVG Version: 6.00 Build 0)  -->
<svg version="1.1" id="레이어_1" xmlns="http://www.w3.org/2000/svg" xmlns:xlink="http://www.w3.org/1999/xlink" x="0px"
	 y="0px" viewBox="0 0 24 24" style="enable-background:new 0 0 24 24;" xml:space="preserve">
<style type="text/css">
	.st0{fill:#BBBBBB;}
</style>
<path class="st0" d="M16.5,12c0,0.9-0.6,1.6-1.3,1.6S14,12.9,14,12s0.6-1.6,1.3-1.6S16.5,11.1,16.5,12z M10,12
	c0-0.9-0.6-1.6-1.3-1.6S7.5,11.1,7.5,12s0.6,1.6,1.3,1.6S10,12.9,10,12z M12,19.8c3.2,0,4-3.1,4-3.1H8C8,16.7,8.8,19.8,12,19.8z
	 M24,13c0,2-0.9,4.9-3.3,5.4C18.9,22.1,16,24,12,24s-6.9-1.9-8.7-5.6C0.9,17.9,0,15,0,13c0-2.2,0.8-4.3,2.8-4.4C3,6,4.1,3.9,6.1,2.5
	C6.4,0.5,7.3,0,8.2,0c0.5,0,2.6,0.9,3.8,0.9c1.1,0,3.2-0.9,3.8-0.9c0.9,0,1.8,0.5,2.1,2.5c1.9,1.3,3.1,3.4,3.3,6
	C23.2,8.7,24,10.7,24,13z M13,2.9v1.6c0.7,0.2,1.6,0.5,2.7,1c0.4-0.8,0.4-2.7,0-3.4C15.2,2.2,14,2.7,13,2.9z M8.3,5.4
	c1.1-0.5,2-0.8,2.7-0.9V2.9C9.9,2.7,8.8,2.2,8.3,2C7.9,2.8,7.9,4.7,8.3,5.4z M21.4,10.8c-0.3-0.2-0.6-0.1-0.8,0
	c-0.7,0.3-1.4-0.2-1.4-1c0-1.3-0.2-3.1-1.4-4.5c-0.4,2-1.5,2.6-2.5,2.3c-1-0.3-2.1-1.1-3.3-1.1c-1.1,0-2.5,0.8-3.3,1.1
	c-1,0.3-2.1-0.3-2.5-2.3C5,6.7,4.8,8.4,4.8,9.7c0,0.8-0.7,1.3-1.4,1c-0.1-0.1-0.5-0.1-0.8,0c-1.1,0.7-0.8,5.6,1.3,5.6
	c0.4,0,0.7,0.3,0.9,0.6c1.4,3.3,3.7,4.9,7.1,4.9s5.7-1.6,7.1-4.9c0.2-0.4,0.5-0.6,0.9-0.6C22.2,16.3,22.5,11.5,21.4,10.8z"/>
</svg>
